<svg xmlns="http://www.w3.org/2000/svg" width="256" height="256" viewBox="0 0 256 256">
<!-- SVG created with Arrow, by QuiverAI (https://quiver.ai) -->
  <rect width="256" fill="#FEFFFE"/>
  <path d="m92.83 65.52h11.58v10.1h-11.58v-10.1z" fill="#000"/>
  <path d="m92.83 84.96h11.58v45.49h-11.58v-45.49z" fill="#000"/>
  <path d="m146.9 85.01h-25.66v9.98h24.65c4.78 0 5.13 4.12 5.13 5.34v14.6c0 4.76-1.87 5.84-23.33 5.63-3.95-0.04-5.09-1.69-5.09-4.4 0-2.43 1.23-4.78 4.87-4.78h19.41v-10.47h-19.11c-10.89 0-15.62 8.26-15.62 15.69 0 8.64 7.27 13.84 15.03 13.84h20.48c11 0 15.21-7.51 15.21-14.36v-14.17c0-9.19-6.01-16.9-15.97-16.9z" fill="#000"/>
  <path d="m172.2 65.52h11.43v48.68c0 4.81 1.58 6.19 4.5 6.19h3.49v10.06h-6.21c-7.6 0-13.21-5.74-13.21-13.78v-51.15z" fill="#000"/>
  <path d="m233.8 85.01h-19.11c-9.99 0-16.98 7.13-16.98 16.3v13.54c0 9.16 7.43 15.6 15.99 15.6h20.21c9.72 0 16.11-7.72 16.11-15.44v-13.45c0-9.17-6.69-16.55-16.22-16.55zm5 29.7c0 3.54-2.67 5.56-5.87 5.56h-17.99c-3.85 0-5.71-2.79-5.71-5.57v-13.54c0-3.38 1.92-5.81 6.03-5.81h17.98c3.85 0 5.56 2.28 5.56 5.92v13.44z" fill="#000"/>
  <path d="m30.71 52.8c-5.62 0-8.38 5.13-8.38 8.1 0 5.5 4.16 8.03 8.23 8.03h10.31c6.98 0 9.14 4.2 8.14 8.85-0.89 4.29-5.02 7.23-9.4 7.23h-25.78c-6.24 0-7.83 5.97-7.83 8.05 0 6.28 4.71 8.17 7.49 8.17h27.06c9.43 0 9.11 7.53 9.11 8.39v14.5c0 6.26 4.82 8.64 8.26 8.64 6.92 0 8.6-6.48 8.6-8.64v-14.16c0-6.15-4.77-8.42-8.88-8.42-5.03 0-7.83-4.97-7.28-8.52 0.65-4.1 3.59-7.36 9.77-7.36h14.74c5.64 0 8.79-4.71 8.79-8.43 0-3.55-2.18-7.75-8.24-7.75-5.61 0-8.86-3.67-9.06-8.27-0.24-5.16-3.58-8.41-8.3-8.41h-27.35z" fill="#000"/>
  <path d="m58.94 182.1c11.18-0.84 16.45-11.2 16.45-18.77v-6.37c0-10.02-6.47-15.75-14.67-15.75h-41.38c-3.96 0-5.28 3.6-5.28 5.83v54.37h11.5v-50h35.17c3 0 3.48 1.74 3.48 4.35v6.13c0 6.44-5.27 9.33-10.22 9.33h-23.77v10.81h9.7l22.56 19.38h15.98l-21.8-19.38c0.49 0.13 1.71 0.13 2.28 0.07z" fill="#000"/>
  <path d="m130 165.2c-3.1-6.5-9.3-9.59-16.58-9.59h-21.24v10.58h23.15c5.56 0 6.73 3.86 6.73 6.1v14.41c0 3.34-1.36 4.56-4.17 4.56h-19.69c-3.41 0-4.98-1.57-4.98-3.97 0-3.28 1.71-5.13 5.54-5.13h18.78v-10.17h-20.59c-7.6 0-13.98 6.32-13.98 15.28 0 9.69 6.85 14.12 14.36 14.12h20.81c11.28 0 14.85-7.6 14.85-14.6v-13.54c0-2.46-1.36-5.09-2.99-8.05z" fill="#000"/>
  <path d="m157.9 155.5c-10.17 0-16.57 7.8-16.57 16.56v13.41c0 9.23 7.32 15.92 16.23 15.92h30.37v-10.68h-29.05c-4.16 0-6.4-2.04-6.4-5.51v-12.5c0-3.64 1.65-5.54 6.26-5.54h29.09v-11.66h-29.93z" fill="#000"/>
  <path d="m212.2 155.5c-9.99 0-16.67 7.16-16.67 16.33v14.16c0 8.85 6.98 15.45 15.99 15.45h24.13v-10.68h-23.38c-4.1 0-5.57-2.37-5.57-5.12v-13.07c0-3.38 1.81-5.81 5.93-5.81h18.01c4.99 0 5.97 2.55 5.97 4.37 0 3.41-1.68 4.89-4.58 4.89h-20.42v9.7h19.84c10.89 0 15.75-7.88 15.75-14.88 0-8.35-7.7-15.34-16-15.34h-19z" fill="#000"/>
</svg>